<svg width="288" height="263" viewBox="0 0 288 263" fill="none" xmlns="http://www.w3.org/2000/svg">
<g filter="url(#filter0_d_13_87)">
<path d="M75.3684 26.3738C75.6791 24.0335 76.7627 21.1918 77.7775 20.0586C79.56 18.0707 81.8451 18 144.671 18C208.305 18 209.764 18.0461 211.839 20.1422C213.234 21.5507 213.96 23.7121 213.96 26.453V30.6217L225.889 31.0105C239.686 31.4615 243.692 33.1731 247.667 40.3183C249.671 43.9204 250.01 46.1482 250 55.6338C249.986 67.9042 248.444 75.2648 244.053 84.0316C240.716 90.6938 233.254 98.9626 226.952 102.981C221.865 106.225 211.055 110.089 206.837 110.172C204.476 110.218 202.996 111.491 199.431 116.541C194.462 123.583 185.811 130.908 176.621 135.855C162.468 143.475 158.848 149.727 158.832 166.572C158.817 181.43 158.987 181.582 175.984 182.058L188.691 182.412L191.782 185.91C194.682 189.191 194.874 189.971 194.874 198.496V207.583H145.036H95.1993V198.496C95.1993 189.971 95.3912 189.191 98.2913 185.91L101.382 182.412L114.189 182.055C126.605 181.709 127.064 181.61 129.238 178.841C131.278 176.243 131.439 174.964 131.028 164.629C130.632 154.689 130.218 152.656 127.709 148.331C124.508 142.814 121.241 140.095 110.99 134.414C102.716 129.827 94.6808 122.78 89.3302 115.419C86.2223 111.141 84.8703 110.114 82.3509 110.114C78.085 110.114 67.3276 106.339 62.1085 103.011C56.144 99.2079 49.2346 91.7842 45.5032 85.1681C40.9553 77.106 39 68.1784 39 55.4796C39 46.1686 39.3499 43.9032 41.3455 40.3183C45.3113 33.1913 49.3385 31.4604 62.9982 31.0148L74.8032 30.6303L75.3684 26.3738Z" fill="white"/>
<path d="M72.9317 233.319C72.9317 222.64 74.6505 219.096 80.6861 217.332C82.5534 216.787 110.982 216.302 144.22 216.248C210.286 216.142 210.573 216.168 214.28 222.508C216.445 226.209 216.823 240.68 214.808 242.715C213.844 243.688 196.872 244 144.911 244C107.168 244 75.5317 243.708 74.6091 243.35C73.2561 242.825 72.9317 240.885 72.9317 233.319Z" fill="white"/>
<path d="M75.3684 26.3738C75.6791 24.0335 76.7627 21.1918 77.7775 20.0586C79.56 18.0707 81.8451 18 144.671 18C208.305 18 209.764 18.0461 211.839 20.1422C213.234 21.5507 213.96 23.7121 213.96 26.453V30.6217L225.889 31.0105C239.686 31.4615 243.692 33.1731 247.667 40.3183C249.671 43.9204 250.01 46.1482 250 55.6338C249.986 67.9042 248.444 75.2648 244.053 84.0316C240.716 90.6938 233.254 98.9626 226.952 102.981C221.865 106.225 211.055 110.089 206.837 110.172C204.476 110.218 202.996 111.491 199.431 116.541C194.462 123.583 185.811 130.908 176.621 135.855C162.468 143.475 158.848 149.727 158.832 166.572C158.817 181.43 158.987 181.582 175.984 182.058L188.691 182.412L191.782 185.91C194.682 189.191 194.874 189.971 194.874 198.496V207.583H145.036H95.1993V198.496C95.1993 189.971 95.3912 189.191 98.2913 185.91L101.382 182.412L114.189 182.055C126.605 181.709 127.064 181.61 129.238 178.841C131.278 176.243 131.439 174.964 131.028 164.629C130.632 154.689 130.218 152.656 127.709 148.331C124.508 142.814 121.241 140.095 110.99 134.414C102.716 129.827 94.6808 122.78 89.3302 115.419C86.2223 111.141 84.8703 110.114 82.3509 110.114C78.085 110.114 67.3276 106.339 62.1085 103.011C56.144 99.2079 49.2346 91.7842 45.5032 85.1681C40.9553 77.106 39 68.1784 39 55.4796C39 46.1686 39.3499 43.9032 41.3455 40.3183C45.3113 33.1913 49.3385 31.4604 62.9982 31.0148L74.8032 30.6303L75.3684 26.3738Z" stroke="black" stroke-width="4" stroke-linejoin="round"/>
<path d="M72.9317 233.319C72.9317 222.64 74.6505 219.096 80.6861 217.332C82.5534 216.787 110.982 216.302 144.22 216.248C210.286 216.142 210.573 216.168 214.28 222.508C216.445 226.209 216.823 240.68 214.808 242.715C213.844 243.688 196.872 244 144.911 244C107.168 244 75.5317 243.708 74.6091 243.35C73.2561 242.825 72.9317 240.885 72.9317 233.319Z" stroke="black" stroke-width="4" stroke-linejoin="round"/>
</g>
<path d="M151.307 59.0195C150.034 55.1415 148.129 51.5529 147.028 50.9557C144.666 49.6743 144.827 49.6721 142.571 51.0057C141.585 51.5899 139.954 54.6335 138.946 57.7718C136.234 66.2164 134.95 67.2835 127.495 67.2835C119.518 67.2835 117 68.5758 117 72.6724C117 75.0405 117.859 76.3459 120.506 78.0048C122.435 79.2133 125.193 81.4748 126.635 83.0314L129.259 85.8619L127.413 93.161C125.041 102.544 125.073 102.991 128.25 104.458C130.583 105.536 131.651 105.193 136.819 101.715C140.067 99.53 143.752 97.7417 145.011 97.7417C146.269 97.7417 149.667 99.505 152.565 101.66C161.286 108.151 166.182 104.733 162.658 94.6132C159.819 86.4645 160.322 84.6816 166.907 79.5266C176.346 72.1372 174.705 67.2835 162.769 67.2835C159.531 67.2835 156.144 66.9963 155.241 66.6449C154.339 66.2936 152.568 62.8627 151.307 59.0195Z" fill="#AA0217" stroke="black" stroke-width="4" stroke-linejoin="round"/>
<defs>
<filter id="filter0_d_13_87" x="37" y="16" width="221" height="236" filterUnits="userSpaceOnUse" color-interpolation-filters="sRGB">
    <feDropShadow dx="7" dy="4" stdDeviation="0" flood-color="#000000" flood-opacity="1" />
</filter>
</defs>
</svg>
