<svg width="100" height="100" viewBox="0 0 100 100" fill="none" xmlns="http://www.w3.org/2000/svg">
<path d="M27.0653 20.7827C27.1684 20.005 27.5279 19.0607 27.8646 18.6841C28.4559 18.0235 29.214 18 50.0566 18C71.1676 18 71.6516 18.0153 72.3401 18.7119C72.8027 19.1799 73.0436 19.8982 73.0436 20.809V22.1943L77.0011 22.3235C81.5782 22.4734 82.9072 23.0421 84.226 25.4166C84.8909 26.6136 85.0034 27.3539 84.9999 30.506C84.9953 34.5836 84.4839 37.0296 83.0271 39.9429C81.9201 42.1568 79.4446 44.9046 77.3536 46.24C75.6661 47.3178 72.0798 48.602 70.6804 48.6294C69.8973 48.6447 69.4062 49.0679 68.2235 50.7461C66.5751 53.086 63.7049 55.5202 60.6564 57.1643C55.9609 59.6964 54.7599 61.774 54.7546 67.3717C54.7497 72.3092 54.806 72.3598 60.445 72.5178L64.6604 72.6356L65.6858 73.7981C66.6479 74.8883 66.7116 75.1474 66.7116 77.9803V81H50.178H33.6443V77.9803C33.6443 75.1474 33.708 74.8883 34.6701 73.7981L35.6955 72.6356L39.9443 72.5167C44.0633 72.4017 44.2156 72.369 44.9368 71.4489C45.6136 70.5854 45.6671 70.1604 45.5306 66.7261C45.3994 63.423 45.2618 62.7474 44.4295 61.3102C43.3675 59.4768 42.2837 58.5731 38.883 56.6852C36.1381 55.1611 33.4723 52.8194 31.6972 50.3731C30.6662 48.9515 30.2176 48.6102 29.3818 48.6102C27.9666 48.6102 24.3978 47.3559 22.6663 46.25C20.6876 44.9861 18.3954 42.5191 17.1575 40.3205C15.6487 37.6414 15 34.6747 15 30.4548C15 27.3607 15.1161 26.6079 15.7781 25.4166C17.0938 23.0482 18.4299 22.473 22.9615 22.3249L26.8778 22.1972L27.0653 20.7827Z" stroke="black" stroke-width="4" stroke-linejoin="round"/>
</svg>
