<svg width="100" height="100" viewBox="0 0 100 100" fill="none" xmlns="http://www.w3.org/2000/svg">
<path d="M49.2604 64.3035V66" stroke="black" stroke-width="4" stroke-linecap="round"/>
<path d="M41.0605 39.4212C41.0605 26.4145 59.4395 26.9801 59.4395 39.4212C59.4395 50.7416 49.2604 45.0763 49.2604 56.9519" stroke="black" stroke-width="4" stroke-linecap="round"/>
<path d="M27.1787 68.6981L28.9345 69.6558C29.313 68.9618 29.2472 68.1098 28.7665 67.4821L27.1787 68.6981ZM19.9231 82L18.1673 81.0423C17.7312 81.8418 17.8903 82.8349 18.5542 83.4582C19.2182 84.0814 20.2193 84.1775 20.9897 83.6919L19.9231 82ZM32.4609 74.0957L33.707 72.5314C33.0416 72.0014 32.1139 71.9502 31.3943 72.4039L32.4609 74.0957ZM77.5769 48.1538C77.5769 64.9654 65.0614 78.3077 49.9616 78.3077V82.3077C67.5739 82.3077 81.5769 66.8585 81.5769 48.1538H77.5769ZM49.9616 18C65.0614 18 77.5769 31.3423 77.5769 48.1538H81.5769C81.5769 29.4492 67.5739 14 49.9616 14V18ZM22.3462 48.1538C22.3462 31.3423 34.8617 18 49.9616 18V14C32.3492 14 18.3462 29.4492 18.3462 48.1538H22.3462ZM28.7665 67.4821C24.7667 62.2593 22.3462 55.5253 22.3462 48.1538H18.3462C18.3462 56.4061 21.0573 63.9945 25.5908 69.9142L28.7665 67.4821ZM21.6789 82.9577L28.9345 69.6558L25.4229 67.7404L18.1673 81.0423L21.6789 82.9577ZM31.3943 72.4039L18.8565 80.3081L20.9897 83.6919L33.5275 75.7876L31.3943 72.4039ZM49.9616 78.3077C43.8971 78.3077 38.2799 76.1739 33.707 72.5314L31.2148 75.6601C36.4477 79.8284 42.932 82.3077 49.9616 82.3077V78.3077Z" fill="black"/>
</svg>
