<svg width="100" height="100" viewBox="0 0 100 100" fill="none" xmlns="http://www.w3.org/2000/svg">
<circle cx="50" cy="50" r="10" stroke="black" stroke-width="4"/>
<path d="M44.5 20.5V18.5C43.5569 18.5 42.742 19.1588 42.5444 20.0809L44.5 20.5ZM56 20.5L57.9728 20.1712C57.8121 19.2068 56.9777 18.5 56 18.5V20.5ZM67.5 26L68.8016 24.4815C68.0081 23.8014 66.8248 23.8468 66.0858 24.5858L67.5 26ZM74.5 32L75.9799 33.3453C76.3435 32.9454 76.5297 32.4152 76.4961 31.8757C76.4625 31.3362 76.212 30.8333 75.8016 30.4815L74.5 32ZM79.5 45H81.5C81.5 44.0376 80.8145 43.2116 79.8686 43.0343L79.5 45ZM79.5 54.5L80.0153 56.4325C80.8908 56.199 81.5 55.4061 81.5 54.5H79.5ZM74.5 67L76.0439 68.2714C76.4081 67.8292 76.5651 67.252 76.4752 66.6862C76.3853 66.1203 76.0571 65.6203 75.5737 65.3127L74.5 67ZM67.5 75.5L65.9815 76.8016C66.3659 77.2501 66.929 77.5057 67.5197 77.4999C68.1104 77.4941 68.6683 77.2274 69.0439 76.7714L67.5 75.5ZM56 80V82C56.9431 82 57.758 81.3412 57.9556 80.4191L56 80ZM44.5 80L42.5272 80.3288C42.6879 81.2932 43.5223 82 44.5 82V80ZM33 74.5L31.6984 76.0185C32.4919 76.6986 33.6752 76.6532 34.4142 75.9142L33 74.5ZM26 68.5L24.5201 67.1547C24.1565 67.5546 23.9703 68.0848 24.0039 68.6243C24.0375 69.1638 24.288 69.6667 24.6984 70.0185L26 68.5ZM21 55.5L19 55.5C19 56.4624 19.6855 57.2884 20.6314 57.4657L21 55.5ZM21 46L20.4847 44.0675C19.6092 44.301 19 45.0939 19 46L21 46ZM26 33.5L24.4561 32.2286C24.0919 32.6708 23.9349 33.248 24.0248 33.8138C24.1147 34.3796 24.4429 34.8797 24.9263 35.1873L26 33.5ZM33 25L34.5185 23.6984C34.1341 23.2499 33.571 22.9943 32.9803 23.0001C32.3896 23.0059 31.8317 23.2726 31.4561 23.7286L33 25ZM44.5 22.5H56V18.5H44.5V22.5ZM54.0272 20.8288C54.2113 21.9336 54.6145 23.676 55.2426 25.4257C55.8502 27.1182 56.7623 29.0907 58.0858 30.4142L60.9142 27.5858C60.2377 26.9093 59.5665 25.6318 59.0074 24.0743C58.4688 22.574 58.122 21.0664 57.9728 20.1712L54.0272 20.8288ZM58.0858 30.4142C59.0793 31.4077 60.3246 31.7007 61.4621 31.6288C62.5417 31.5606 63.5841 31.1688 64.4667 30.7214C66.2395 29.8229 67.9085 28.4199 68.9142 27.4142L66.0858 24.5858C65.2581 25.4134 63.9272 26.5104 62.6583 27.1536C62.02 27.4771 61.5312 27.6165 61.2098 27.6368C60.9463 27.6534 60.9207 27.5923 60.9142 27.5858L58.0858 30.4142ZM66.1984 27.5185L73.1984 33.5185L75.8016 30.4815L68.8016 24.4815L66.1984 27.5185ZM73.0201 30.6547C72.112 31.6536 70.8127 33.3015 69.8291 35.062C69.3372 35.9422 68.8876 36.9153 68.6225 37.8948C68.364 38.8503 68.2278 40.0079 68.6026 41.1325L72.3974 39.8675C72.3722 39.7921 72.3276 39.5164 72.4837 38.9395C72.6333 38.3868 72.9211 37.7287 73.3209 37.013C74.1206 35.5819 75.2214 34.1797 75.9799 33.3453L73.0201 30.6547ZM68.6026 41.1325C68.9917 42.2998 69.8668 43.1551 70.6832 43.756C71.5305 44.3797 72.5375 44.8918 73.526 45.3066C75.5059 46.1377 77.699 46.6972 79.1314 46.9657L79.8686 43.0343C78.6344 42.8028 76.7274 42.3123 75.074 41.6184C74.2458 41.2707 73.5529 40.9015 73.0543 40.5346C72.5249 40.1449 72.4083 39.9002 72.3974 39.8675L68.6026 41.1325ZM77.5 45V54.5H81.5V45H77.5ZM78.9847 52.5675C77.62 52.9314 75.5251 53.656 73.5803 54.6805C72.6056 55.194 71.6199 55.8082 70.7709 56.5248C69.9347 57.2306 69.1294 58.1209 68.6617 59.2122L72.3383 60.7878C72.4706 60.4791 72.7778 60.0652 73.3509 59.5815C73.9113 59.1085 74.6319 58.6477 75.4447 58.2195C77.0749 57.3607 78.88 56.7352 80.0153 56.4325L78.9847 52.5675ZM68.6617 59.2122C67.6413 61.5931 68.6789 63.8368 69.7504 65.2962C70.8572 66.8037 72.365 68.012 73.4262 68.6873L75.5737 65.3127C74.8017 64.8214 73.7095 63.9297 72.9746 62.9288C72.2044 61.8798 72.1587 61.2069 72.3383 60.7878L68.6617 59.2122ZM72.9561 65.7286L65.9561 74.2286L69.0439 76.7714L76.0439 68.2714L72.9561 65.7286ZM69.0185 74.1984C67.9659 72.9704 66.2584 71.2017 64.5472 69.9229C63.7081 69.2958 62.7333 68.6831 61.7467 68.3712C60.7756 68.0641 59.2604 67.9112 58.0858 69.0858L60.9142 71.9142C60.5396 72.2888 60.1744 72.0692 60.5408 72.1851C60.8917 72.296 61.4419 72.5958 62.1528 73.1271C63.5416 74.165 65.0341 75.6963 65.9815 76.8016L69.0185 74.1984ZM58.0858 69.0858C57.4318 69.7398 56.9255 70.6475 56.5347 71.4883C56.1245 72.371 55.7556 73.3722 55.4356 74.3564C54.7947 76.327 54.3031 78.3737 54.0444 79.5809L57.9556 80.4191C58.1969 79.293 58.6553 77.3897 59.2394 75.5936C59.5318 74.6945 59.8443 73.8581 60.1621 73.1742C60.4995 72.4483 60.7682 72.0602 60.9142 71.9142L58.0858 69.0858ZM56 78H44.5V82H56V78ZM46.4728 79.6712C46.2887 78.5664 45.8855 76.824 45.2574 75.0743C44.6498 73.3818 43.7377 71.4093 42.4142 70.0858L39.5858 72.9142C40.2623 73.5907 40.9335 74.8682 41.4926 76.4257C42.0312 77.926 42.378 79.4336 42.5272 80.3288L46.4728 79.6712ZM42.4142 70.0858C41.4207 69.0923 40.1754 68.7993 39.0379 68.8712C37.9583 68.9394 36.9159 69.3312 36.0333 69.7786C34.2605 70.6771 32.5915 72.0801 31.5858 73.0858L34.4142 75.9142C35.2419 75.0866 36.5728 73.9896 37.8417 73.3464C38.4799 73.0229 38.9688 72.8835 39.2902 72.8632C39.5537 72.8466 39.5793 72.9077 39.5858 72.9142L42.4142 70.0858ZM34.3016 72.9815L27.3016 66.9815L24.6984 70.0185L31.6984 76.0185L34.3016 72.9815ZM27.4799 69.8453C28.388 68.8464 29.6873 67.1985 30.6709 65.438C31.1628 64.5578 31.6124 63.5847 31.8775 62.6052C32.136 61.6497 32.2722 60.4921 31.8974 59.3675L28.1026 60.6325C28.1278 60.7079 28.1724 60.9836 28.0163 61.5605C27.8667 62.1132 27.5789 62.7713 27.1791 63.487C26.3794 64.9181 25.2786 66.3203 24.5201 67.1547L27.4799 69.8453ZM31.8974 59.3675C31.5083 58.2002 30.6332 57.3449 29.8168 56.744C28.9695 56.1203 27.9624 55.6082 26.974 55.1934C24.9941 54.3623 22.801 53.8028 21.3686 53.5343L20.6314 57.4657C21.8656 57.6972 23.7726 58.1877 25.426 58.8816C26.2542 59.2293 26.9471 59.5984 27.4457 59.9654C27.9751 60.3551 28.0917 60.5998 28.1026 60.6325L31.8974 59.3675ZM23 55.5L23 46L19 46L19 55.5L23 55.5ZM21.5153 47.9325C22.88 47.5685 24.9749 46.844 26.9197 45.8195C27.8944 45.306 28.8801 44.6918 29.7291 43.9752C30.5653 43.2694 31.3706 42.3791 31.8383 41.2878L28.1617 39.7122C28.0294 40.0209 27.7222 40.4348 27.1491 40.9185C26.5887 41.3915 25.8681 41.8523 25.0553 42.2805C23.4251 43.1393 21.62 43.7648 20.4847 44.0675L21.5153 47.9325ZM31.8383 41.2878C32.8587 38.9069 31.8211 36.6632 30.7496 35.2038C29.6428 33.6963 28.135 32.488 27.0738 31.8127L24.9263 35.1873C25.6983 35.6786 26.7905 36.5703 27.5254 37.5712C28.2956 38.6202 28.3413 39.2931 28.1617 39.7122L31.8383 41.2878ZM27.5439 34.7714L34.5439 26.2714L31.4561 23.7286L24.4561 32.2286L27.5439 34.7714ZM31.4815 26.3016C32.5341 27.5296 34.2416 29.2983 35.9528 30.5771C36.7919 31.2042 37.7667 31.8169 38.7533 32.1288C39.7244 32.4359 41.2396 32.5888 42.4142 31.4142L39.5858 28.5858C39.9604 28.2112 40.3256 28.4308 39.9592 28.3149C39.6083 28.204 39.0581 27.9042 38.3472 27.3729C36.9584 26.335 35.4659 24.8037 34.5185 23.6984L31.4815 26.3016ZM42.4142 31.4142C43.0682 30.7602 43.5745 29.8525 43.9653 29.0117C44.3755 28.129 44.7444 27.1278 45.0644 26.1436C45.7053 24.173 46.1969 22.1263 46.4556 20.9191L42.5444 20.0809C42.3031 21.207 41.8447 23.1103 41.2606 24.9064C40.9682 25.8055 40.6557 26.6419 40.3379 27.3258C40.0005 28.0517 39.7318 28.4398 39.5858 28.5858L42.4142 31.4142Z" fill="black"/>
</svg>
