<svg width="100" height="100" viewBox="0 0 100 100" fill="none" xmlns="http://www.w3.org/2000/svg">
<path fill-rule="evenodd" clip-rule="evenodd" d="M50.9077 38.6361C55.4026 40.9567 60.6848 35.2736 57.4214 31.6278C54.9691 28.8885 50.0147 30.6016 49.2424 34.4558C48.9229 36.0509 49.7055 38.0158 50.9077 38.6361ZM54.1194 55.6874C56.1047 47.8835 56.2938 45.9852 55.1941 44.8875C54.8 44.4942 54.3566 44.1831 54.209 44.1959C53.0126 44.3007 49.7475 45.4517 47.5935 46.528C44.8905 47.8789 40.5074 50.807 40.5074 51.2622C40.5074 51.4052 40.7431 51.8579 41.0311 52.2684L41.5548 53.0146L43.5891 51.9905C46.1234 50.7144 47.0419 50.6511 46.7822 51.7706C46.6794 52.2129 45.9357 55.3106 45.129 58.6538C44.3227 61.9971 43.6378 65.6714 43.6073 66.8188C43.559 68.6449 43.6632 68.995 44.4434 69.6268C45.1272 70.1803 45.6878 70.3087 46.8499 70.1782C48.8559 69.9522 53.2791 67.8261 55.8482 65.8531C58.7121 63.6533 58.874 63.422 58.2127 62.4794L57.6693 61.7053L55.7758 62.7719C53.6839 63.9504 52.3284 64.1514 52.3284 63.2829C52.3284 62.9771 53.1344 59.5592 54.1194 55.6874ZM50 84C68.7777 84 84 68.7777 84 50C84 31.2223 68.7777 16 50 16C31.2223 16 16 31.2223 16 50C16 68.7777 31.2223 84 50 84Z" fill="black"/>
</svg>
