<svg width="100" height="100" viewBox="0 0 100 100" fill="none" xmlns="http://www.w3.org/2000/svg">
<path d="M54.98 22C60.3573 22 64.674 23.3813 67.93 26.144C71.186 28.9067 72.814 32.8533 72.814 37.984C72.814 42.4733 71.3093 46.0253 68.3 48.64C65.34 51.2547 61.5 51.11 58.606 52.61C57.6769 53.0916 56.164 54.7139 56.164 55.612C56.164 58.4205 52 59.11 49.5 59.11C47 59.11 43.362 58.61 43.362 55.612C42.8923 49.8606 43.2859 46.4472 44.5 45.11C45.7141 43.7728 46.7363 43.386 48.246 43.386C51.6007 43.386 54.166 43.016 55.942 42.276C57.718 41.4867 58.606 40.1053 58.606 38.132C58.606 36.8 58.236 35.764 57.496 35.024C56.8053 34.2347 55.8433 33.84 54.61 33.84C53.2287 33.84 52.168 34.2593 51.428 35.098C50.7373 35.8873 50.9243 35.8208 50.5 37.518C50 39.518 47 39.018 44 39.018C41 39.018 37 39.11 37 35.024C37 32.8387 38.0194 31.11 38.552 30.14C39.9333 27.624 42.0053 25.6507 44.768 24.22C47.5307 22.74 50.9347 22 54.98 22ZM49.874 78.61C47.3087 78.61 45.2367 77.9193 43.658 76.538C42.1287 75.1073 41.364 73.3067 41.364 71.136C41.364 68.9653 42.1287 67.1647 43.658 65.734C45.2367 64.3033 47.3087 63.588 49.874 63.588C52.39 63.588 54.4127 64.3033 55.942 65.734C57.5207 67.1647 58.31 68.9653 58.31 71.136C58.31 73.2573 57.5207 75.0333 55.942 76.464C54.4127 77.8947 52.39 78.61 49.874 78.61Z" fill="black"/>
</svg>
