<svg width="100" height="100" viewBox="0 0 100 100" fill="none" xmlns="http://www.w3.org/2000/svg">
<path fill-rule="evenodd" clip-rule="evenodd" d="M38.6988 17.7763C37.933 18.5383 37.9185 19.07 37.9185 46.5C37.9185 73.93 37.933 74.4617 38.6988 75.2237C39.4423 75.9635 39.999 76 50.5753 76C61.5998 76 61.6759 75.9946 62.279 75.1371C62.815 74.3759 62.8864 71.0017 62.8864 46.4134C62.8864 19.07 62.872 18.5383 62.1062 17.7763C61.363 17.0369 60.8059 17 50.4025 17C39.999 17 39.442 17.0369 38.6988 17.7763ZM52.1303 22.6558C53.0666 23.5878 53.0381 37.381 52.0976 38.4151C51.306 39.2857 50.649 39.3148 49.845 38.5152C49.3394 38.0118 49.2321 36.8275 49.2321 31.7465V25.5884L47.9463 25.796C47.0271 25.9443 46.5047 25.817 46.1158 25.3508C45.311 24.3859 46.0378 23.5199 48.2931 22.7564C50.7489 21.9249 51.3789 21.9086 52.1303 22.6558ZM11.6457 32.4599C11.0616 33.1016 11 35.158 11 53.9425C11 73.5736 11.039 74.7505 11.7135 75.3576C12.3397 75.9212 13.693 76 22.7716 76C32.2976 76 33.1672 75.9437 33.7618 75.2901C34.3458 74.6484 34.4074 72.592 34.4074 53.8075C34.4074 34.1764 34.3684 32.9995 33.6939 32.3924C33.0677 31.8288 31.7144 31.75 22.6358 31.75C13.1098 31.75 12.2402 31.8063 11.6457 32.4599ZM26.5995 37.8934C28.1206 39.0163 28.6051 40.2522 28.4377 42.5796C28.2965 44.5375 28.1475 44.8061 26.1778 46.6568C25.0179 47.7464 23.4547 49.1092 22.7037 49.6856L21.3383 50.7333L24.6738 50.7515C26.7247 50.7628 28.1896 50.9491 28.4775 51.2355C29.1805 51.935 29.0417 53.0203 28.1912 53.4733C27.2096 53.9957 18.1978 53.9957 17.2162 53.4733C15.8044 52.7214 16.294 51.343 18.6866 49.3367C23.8608 44.9967 25.0444 43.7227 25.0444 42.4958C25.0444 39.9502 22.5562 39.0951 20.4008 40.8997C18.9351 42.1266 17.494 42.049 17.3067 40.7327C17.1452 39.5954 18.875 37.7005 20.5432 37.1873C22.2317 36.668 25.4474 37.0429 26.5995 37.8934ZM67.005 47.3629C66.4845 48.1019 66.3975 50.0901 66.3975 61.25C66.3975 72.4099 66.4845 74.3981 67.005 75.1371C67.6065 75.9922 67.7056 76 78.063 76C88.1918 76 88.5366 75.9748 89.2568 75.1829C89.9567 74.4132 90 73.6031 90 61.25C90 48.8969 89.9567 48.0868 89.2568 47.3171C88.5366 46.5252 88.1918 46.5 78.063 46.5C67.7056 46.5 67.6065 46.5078 67.005 47.3629ZM83.4849 52.0118C84.3967 52.919 83.9285 54.0714 81.7625 56.249L79.572 58.4518L80.7588 58.7111C83.1892 59.2421 84.6838 61.8202 83.9788 64.2656C83.4249 66.1878 82.8159 67.0351 81.5031 67.7117C78.4855 69.2662 72.5997 67.8122 72.3235 65.4437C72.1222 63.7195 73.3831 63.3748 75.6005 64.5482C77.7259 65.6727 78.7543 65.7592 79.9649 64.9154C80.8204 64.3192 81.0919 63.0138 80.5337 62.1816C80.06 61.4759 78.6135 60.8618 77.4248 60.8618C76.1822 60.8618 75.3704 60.2501 75.3704 59.3139C75.3704 58.975 76.2481 57.8377 77.321 56.7862C78.3938 55.7347 79.2716 54.7538 79.2716 54.6063C79.2716 54.4584 78.3497 54.4153 77.2235 54.5096C73.6792 54.8074 71.7293 53.6871 73.0452 52.1097C73.6593 51.3733 82.7577 51.2883 83.4849 52.0118Z" fill="black"/>
</svg>
