<svg width="100" height="100" viewBox="0 0 100 100" fill="none" xmlns="http://www.w3.org/2000/svg">
<path fill-rule="evenodd" clip-rule="evenodd" d="M44.4883 16.2397C42.8435 16.7123 41.4143 17.7509 40.486 19.1481C40.1761 19.6143 39.7185 20.6698 39.3069 21.8674L38.634 23.8247L37.8491 23.2375C35.3496 21.3677 32.767 21.0661 30.0781 22.3301C29.1621 22.7608 28.8298 23.0507 25.9439 25.9368C23.0582 28.8231 22.7683 29.1554 22.3377 30.0715C21.0793 32.7492 21.3542 35.2287 23.1885 37.745L23.8324 38.6285L21.8752 39.3013C19.0623 40.2684 17.8163 41.1925 16.8347 43.0403C16.0559 44.506 16 44.974 16 50.0203C16 55.0637 16.0499 55.4813 16.8277 56.9407C17.8214 58.8053 19.1156 59.7643 21.9048 60.7026L23.8009 61.3406L23.0371 62.4756C22.0952 63.8754 21.7068 64.8987 21.6132 66.2278C21.5207 67.5392 21.7402 68.6613 22.335 69.9202C22.7671 70.834 23.0651 71.1757 25.9439 74.0548C28.8228 76.934 29.1644 77.2321 30.0781 77.6642C32.8507 78.9748 35.6924 78.5558 38.2364 76.4608L38.6251 76.1408L39.3024 78.1112C40.2741 80.9384 41.1949 82.1818 43.0453 83.1652C44.5109 83.9441 44.9788 84 50.0244 84C55.0672 84 55.4848 83.9501 56.944 83.1722C58.8084 82.1784 59.7673 80.884 60.7055 78.0944L61.3434 76.1982L62.4783 76.9621C63.8687 77.8979 64.8636 78.2753 66.2145 78.3795C67.5356 78.4814 68.6467 78.267 69.9219 77.6642C70.8356 77.2321 71.1772 76.934 74.0561 74.0548C76.9349 71.1757 77.2329 70.834 77.665 69.9202C78.8749 67.36 78.6179 64.7947 76.9082 62.3684L76.1869 61.3447L78.0892 60.7048C80.8804 59.7657 82.1811 58.804 83.1653 56.9514C83.9434 55.4869 84 55.0154 84 49.9958C84 44.9762 83.9434 44.5048 83.1653 43.0403C82.1821 41.1897 80.9388 40.2688 78.1119 39.2969L76.1418 38.6196L76.4669 38.2308C77.5828 36.8967 78.2616 35.3173 78.3802 33.7793C78.482 32.4581 78.2677 31.3468 77.665 30.0715C77.2329 29.1577 76.9349 28.816 74.0561 25.9368C71.1772 23.0576 70.8356 22.7596 69.9219 22.3275C68.6632 21.7325 67.5412 21.5131 66.23 21.6056C64.9045 21.6989 63.8816 22.0856 62.4767 23.0242L61.3399 23.7834L60.7039 21.8922C59.7674 19.1081 58.8072 17.8128 56.944 16.8195C55.4763 16.0371 55.0791 15.9908 49.9389 16.0011C45.9494 16.0092 45.1715 16.0434 44.4883 16.2397ZM53.2566 26.784C54.1681 29.5742 54.4709 30.1589 55.5781 31.2667C56.5848 32.2738 57.7419 32.9069 59.0977 33.1921C61.3791 33.672 63.1443 33.1935 65.5011 31.4564L66.6616 30.601L68.0236 31.9585C69.2156 33.1465 69.3651 33.345 69.2221 33.5489C69.1322 33.6769 68.7066 34.2651 68.2766 34.856C67.3371 36.1466 66.9092 37.1537 66.7052 38.5537C66.4069 40.5997 67.1619 42.8412 68.6602 44.3582C69.7403 45.4519 70.5236 45.8619 73.209 46.739L75.5 47.4874V49.9958V52.5043L73.209 53.2528C70.4191 54.1644 69.8345 54.4673 68.7268 55.5747C67.7198 56.5815 67.0869 57.7387 66.8017 59.0946C66.3219 61.3763 66.8003 63.1418 68.5372 65.4988L69.3925 66.6595L68.0351 68.0216C66.8473 69.2138 66.6488 69.3633 66.445 69.2203C66.3169 69.1304 65.7289 68.7048 65.138 68.2747C63.8476 67.335 62.8406 66.9071 61.4407 66.703C59.3763 66.4021 57.1723 67.1402 55.6542 68.6406C54.5425 69.7396 54.1362 70.5134 53.2564 73.2077L52.5082 75.499H50H47.4918L46.7434 73.2077C45.8321 70.418 45.5294 69.8333 44.4219 68.724C43.4275 67.7282 42.246 67.0859 40.8741 66.7951C38.6273 66.3189 36.8462 66.8051 34.4989 68.5353L33.3384 69.3907L31.9764 68.0332C30.7844 66.8452 30.6349 66.6467 30.7779 66.4428C30.8678 66.3148 31.2934 65.7266 31.7234 65.1357C32.6629 63.8451 33.0908 62.838 33.2948 61.438C33.5995 59.3478 32.838 57.1375 31.2744 55.5737C30.216 54.5152 29.3798 54.089 26.5905 53.1857L24.5 52.5087V49.9981V47.4874L26.791 46.7389C29.5803 45.8274 30.165 45.5247 31.2741 44.417C32.2698 43.4225 32.9121 42.2409 33.2028 40.8688C33.6789 38.6218 33.1928 36.8405 31.4631 34.4931L30.608 33.3329L31.9036 32.0378C32.6162 31.3256 33.2736 30.7411 33.3644 30.7393C33.4554 30.7373 34.0232 31.1032 34.6262 31.5523C35.9301 32.5237 36.7767 32.9356 38.0024 33.1953C39.1431 33.437 39.7385 33.4373 40.8741 33.1966C42.2448 32.9061 43.4275 32.2633 44.4228 31.2679C45.4812 30.2094 45.9074 29.3731 46.8105 26.5834L47.4875 24.4927H49.9977H52.5082L53.2566 26.784ZM47.8298 37.3749C42.992 38.2514 39.163 41.6991 37.6911 46.504C37.3609 47.5818 37.3334 47.8496 37.3334 49.9958C37.3334 52.1421 37.3609 52.4099 37.6911 53.4876C39.0268 57.8479 42.1489 60.9704 46.5086 62.3063C47.5863 62.6365 47.854 62.664 50 62.664C52.1456 62.664 52.4139 62.6365 53.4906 62.3065C57.8386 60.9741 60.977 57.8355 62.3089 53.4876C62.6391 52.4099 62.6666 52.1421 62.6666 49.9958C62.6666 47.8496 62.6391 47.5818 62.3089 46.504C60.9719 42.1397 57.8071 38.9784 53.4914 37.6963C52.5213 37.4082 51.999 37.3419 50.3984 37.3039C49.3393 37.279 48.1834 37.3108 47.8298 37.3749ZM50.8236 45.8944C51.7081 46.0815 52.135 46.2991 52.8043 46.904C53.895 47.8894 54.4001 49.4069 54.1035 50.8077C53.9139 51.7042 53.698 52.1291 53.0915 52.8005C51.4291 54.6409 48.5709 54.6409 46.9085 52.8005C46.2911 52.117 46.0822 51.6988 45.8885 50.7596C45.6234 49.4728 45.9792 48.2199 46.8992 47.2014C47.5313 46.5016 48.1887 46.115 49.0686 45.9254C50.0206 45.7202 50.0027 45.7205 50.8236 45.8944Z" fill="black"/>
</svg>
