<svg width="100" height="100" viewBox="0 0 100 100" fill="none" xmlns="http://www.w3.org/2000/svg">
<path fill-rule="evenodd" clip-rule="evenodd" d="M46.9455 17.1748C39.3709 18.7683 33.6389 25.8918 32.3333 35.3339C31.9321 38.236 32.0939 48.3765 32.6142 52.9402L32.8155 54.7059L32.3473 55.079C31.2987 55.9147 29.566 57.8437 28.6959 59.144C26.4243 62.5385 24.9842 66.4884 23.7168 72.7997C23.0364 76.1886 22.8991 77.3196 23.0622 78.1922C23.3517 79.7419 24.4255 81.127 25.8674 81.8109L26.6838 82.198H49.5432C71.7586 82.198 72.4235 82.19 73.1443 81.9119C74.177 81.5137 75.3158 80.3928 75.8126 79.2856C76.3688 78.0463 76.3413 76.9414 75.6694 73.5372C74.3306 66.7547 72.8761 62.6958 70.5276 59.1902C69.549 57.7292 68.0285 56.0155 66.9595 55.1686L66.415 54.737L66.6199 52.9558C67.144 48.3971 67.308 38.1149 66.9028 35.2095C65.6635 26.324 60.284 19.301 53.2541 17.3912C51.7472 16.9818 48.4075 16.8672 46.9455 17.1748ZM56.4627 28.5378C57.4846 31.1013 59.289 34.5308 60.7735 36.7308C61.4329 37.708 61.4599 37.996 61.0365 39.5252C60.166 42.6694 57.6776 46.3782 55.1158 48.3493C53.1677 49.8485 51.37 50.5423 49.4667 50.5299C45.54 50.5042 41.9899 47.8662 39.6814 43.2585C38.5544 41.0091 37.5803 37.0564 37.8068 35.6514C37.9187 34.9576 38.162 34.7153 40.4129 33.056C43.8712 30.5066 47.8367 28.6432 51.5591 27.8186C53.3653 27.4185 53.6334 27.3857 54.9334 27.4069L56.0191 27.4245L56.4627 28.5378ZM47.9013 53.7823C49.695 54.0933 52.4391 53.7403 53.78 53.026C53.9623 52.9289 54.4765 53.6448 56.3035 56.5392C57.5653 58.5387 58.6178 60.23 58.6423 60.2977C58.6666 60.3655 56.6455 61.4662 54.1508 62.7436L49.615 65.0662L45.0436 62.7219L40.472 60.3777L42.8381 56.655L45.2042 52.9322L46.0377 53.268C46.4962 53.4526 47.3349 53.6842 47.9013 53.7823Z" fill="black"/>
</svg>
