<svg width="100" height="100" viewBox="0 0 100 100" fill="none" xmlns="http://www.w3.org/2000/svg">
<path d="M40.8256 84C41.7813 82.9177 41.7957 82.8845 41.4854 82.4766C41.3495 82.2978 40.8217 81.6089 40.3124 80.9455C38.5951 78.7082 37.8874 77.5168 36.5805 74.6615C36.0842 73.5773 35.4821 72.3115 35.2425 71.8487C33.9701 69.391 32.4044 67.7935 30.2274 66.7321C28.6877 65.9815 27.6672 65.686 24.2561 65.0034C18.9588 63.9433 18.5049 63.4837 19.3159 60.0007C19.6435 58.5941 19.6444 58.5788 19.5705 55.9372L19.5552 55.3932L19.9787 55.1305C20.9492 54.5283 21.0266 54.3153 20.6563 53.2648C20.5399 52.9344 20.4446 52.5594 20.4447 52.4315C20.4448 52.1238 20.8415 51.321 21.3249 50.6503C21.5395 50.3526 21.7151 50.0616 21.7151 50.0037C21.7151 49.9456 21.3696 49.516 20.9474 49.0489C20.5251 48.5818 20.0678 48.0247 19.931 47.8108C19.6473 47.3675 19.6043 46.8954 19.8181 46.5719C20.0085 46.284 20.8828 45.6666 22.2344 44.866C24.3317 43.6236 25.5155 42.6605 26.3281 41.5355C27.011 40.5902 27.2701 39.9435 27.7262 38.0457C28.5092 34.7879 29.045 33.7418 30.901 31.8487C31.981 30.747 33.1916 29.7213 35.2246 28.1856C36.0166 27.5873 37.0729 26.7529 37.572 26.3314C39.8895 24.3739 41.5836 23.5049 43.8016 23.1359C45.39 22.8717 48.6719 22.977 52.3248 23.4093C53.6339 23.5643 53.5693 23.6007 53.9834 22.4755C54.6812 20.5796 55.7078 18.8479 56.6301 18.0113C57.7938 16.9556 59.0449 16.4186 61.2697 16.0197C61.3862 15.9988 62.2247 15.9937 63.1331 16.0084C64.9736 16.0381 65.7711 16.1663 67.3681 16.6887C68.4832 17.0535 70.2252 17.8984 71.2219 18.5576C74.6729 20.8403 78.1731 24.98 80.2791 29.2694C82.6199 34.0372 82.5734 37.7463 80.1354 40.7305C79.312 41.7385 77.9429 42.6441 76.685 43.0129C76.1287 43.176 75.8425 43.2001 74.3813 43.207C73.2503 43.2123 72.6814 43.2458 72.6156 43.311C72.5623 43.3639 72.3537 44.3085 72.1523 45.4101C70.6693 53.5216 69.4572 57.0459 66.9004 60.6794C65.0487 63.311 62.3767 65.7068 59.9386 66.9217C59.1623 67.3085 57.892 67.7528 56.763 68.0323C55.2603 68.4043 55.1774 68.4352 55.125 68.6419" stroke="black" stroke-width="4" stroke-linecap="round"/>
</svg>
