<?xml version="1.0" encoding="utf-8"?>
<!-- Generator: Adobe Illustrator 23.0.3, SVG Export Plug-In . SVG Version: 6.00 Build 0)  -->
<svg version="1.1" id="Layer_1" xmlns="http://www.w3.org/2000/svg" xmlns:xlink="http://www.w3.org/1999/xlink" x="0px" y="0px"
	 viewBox="0 0 119 261" style="enable-background:new 0 0 119 261;" xml:space="preserve">
<style type="text/css">
	.st0{fill:#C10722;}
	.st1{fill:none;stroke:#000000;stroke-width:0.6;stroke-linecap:round;stroke-linejoin:round;stroke-miterlimit:10;}
</style>
<path class="st0" d="M98.3,227.6c-5.1-11.3-9.8-22.1-13.8-33.9c-2.3-6.8-3.6-14.7-7.4-21c-4-6.7-7.6-13.7-8.7-21.6l1.1,0.1
	c0,0-9-37-7.9-48.3c0.1-1.2,0-2.5,0-3.7c0.1-6.6,6.5-14.4,13-15c7.1-0.7,13.9-2.4,20.8-4.2c4.4-1.1,5.7-4.4,2.9-8
	c-1.7-2.2-3.5-4.2-5.4-6.2c-4.1-4.4-8.7-8.1-12.8-12.5c-3.6-3.9-7.6-8.2-14-7.3c-0.7,0.1-2.7,0.5-2.7,0.5s-3-4.3-3.3-6.5
	c0,0,0,0,0,0c0,0,0,0,0,0c0.2-5.4-0.7-10.8-1.5-16.1c-0.8-4.9-2.1-9.4-5.4-13.3c-2.3-2.7-6.1-4-9.6-2.9c-0.5,0-1,0.1-1.5,0.1
	c-0.6-0.1-1.1,0-1.5,0.5c-4.1,1.3-6.7,4.1-8.1,8.1c-2.8,8-2.3,15.8,1.5,23.4c2.6,5.2,1.9,6.5-3.9,7.6c-11.5,2.3-12,11.6-12,15.8
	c0,3.6-0.9,7.1-1.2,10.6c-0.3,2.8-4.5,21.1-4.8,25.7c-0.8,10.4-1.3,20.8-1.9,31.2c-0.2,4.1,2,9.7,7.1,9.6c0.2,0.1,0.3,0.1,0.5,0.2
	c0.1,1.2,0.2,2.5,0.2,3.7c-0.4,9.9,1.5,14.7,1.1,22c-0.4,7.6,0.3,14.9,2,22.2c3.2,14.1,10.5,24.6,4.8,42.7c-0.9,2.9,3.5,5.2,5.1,5.3
	c1.6,0.2,5.7-0.5,5.5-3c-1-11.1,1.3-11.5-0.3-16.3c-0.7-2.3-2.6-1.9-2.5-6.8c0.1-7.8,0.4-21.6-0.1-29.4c-0.4-6-2.9-11.2-2.1-17.3
	c1.1-8.6,2.3-17.8,2.3-17.8s1.2,0.5,4.3,1c2.6,0.5,5.2,0.6,7.8,0.8c1.7,0.2,4.3,0.8,4.3,0.8s4.2,10.4,8.6,20.1
	c3.6,7.8,6.1,10.6,7.8,15.2c1.4,3.8,6.1,8.3,7.6,10.1c4.5,5.5,5.3,7.9,8.9,13.9c0.8,1.4,1.1,2.8,0.6,4.4c-1.4,4.1,0,7.5,2.3,10.7
	c0.7,1,0.8,2.2,0.9,3.5c0.3,4.4,6.8,7.9,10.8,6.1C99.2,232.1,98.9,229,98.3,227.6z M64.8,76L64.8,76c2.7-3.8,2.9-8.2,3.2-12.6
	c1.2-0.6,2.3-1.1,3.5-1.7c-0.2-0.1-0.4-0.1-0.6-0.2c0.2,0.1,0.4,0.1,0.6,0.2c5.3,1.6,8.7,5.9,12.9,9c2.1,1.6,2.5,3.1,2.5,3.1
	c0,0-4.7,1.4-7.3,2.3c-2.7,1-7.7,2.4-12.2,3.7C63.4,81,65.2,77.6,64.8,76z M22.7,93.9C22.7,93.9,22.7,93.9,22.7,93.9
	C22.7,93.9,22.7,93.9,22.7,93.9c0.4-6.5,1.3-12.8,3.3-19c0.5-1.4,1.7-5.5,2.3-6.3C34.5,76.6,31.9,87.1,22.7,93.9z"/>
<line class="st1" x1="103.2" y1="250.2" x2="110.2" y2="243.2"/>
<line class="st1" x1="95.6" y1="250.2" x2="110.2" y2="235.6"/>
<line class="st1" x1="87.9" y1="250.2" x2="110.2" y2="227.9"/>
<line class="st1" x1="80.7" y1="249.8" x2="110.2" y2="220.3"/>
<line class="st1" x1="72.7" y1="250.2" x2="110.2" y2="212.7"/>
<line class="st1" x1="65.1" y1="250.2" x2="110.2" y2="205.1"/>
<line class="st1" x1="57.9" y1="249.8" x2="110.2" y2="197.5"/>
<line class="st1" x1="50" y1="250" x2="110.2" y2="189.8"/>
<line class="st1" x1="42.2" y1="250.2" x2="110.2" y2="182.2"/>
</svg>
