<svg width="181" height="47" viewBox="0 0 181 47" fill="none" xmlns="http://www.w3.org/2000/svg">
<path fill-rule="evenodd" clip-rule="evenodd" d="M181 0H0V47H181V0ZM106.8 9.71997V36H110.256V25.416V24.912C110.256 23.256 110.712 21.924 111.624 20.916C112.56 19.884 113.796 19.368 115.332 19.368C116.724 19.368 117.852 19.8 118.716 20.664C119.604 21.528 120.048 22.74 120.048 24.3V36H123.504V25.02C123.504 22.188 122.916 20.016 121.74 18.504C120.564 16.968 118.824 16.2 116.52 16.2H116.376C114.768 16.2 113.448 16.572 112.416 17.316C111.478 17.9923 110.758 18.9365 110.256 20.1484V9.71997H106.8ZM60.3763 35.604C61.4323 36.012 62.6803 36.216 64.1203 36.216H67.0723V33.12H63.6883C62.6563 33.12 61.8523 32.844 61.2763 32.292C60.7243 31.716 60.4483 30.912 60.4483 29.88V19.368H67.0723V16.776H60.4483V10.944H57.1363V16.776H53.8243V19.368H57.1363V29.448C57.1363 31.152 57.4123 32.508 57.9643 33.516C58.5403 34.5 59.3443 35.196 60.3763 35.604ZM16.584 43.488C15.696 43.488 14.796 43.452 13.884 43.38C12.996 43.308 12.144 43.212 11.328 43.092V40.176C12.192 40.296 13.092 40.392 14.028 40.464C14.988 40.56 15.888 40.608 16.728 40.608C18.48 40.608 19.872 40.368 20.904 39.888C21.96 39.432 22.716 38.7 23.172 37.692C23.652 36.708 23.892 35.436 23.892 33.876V32.1996C23.8684 32.2428 23.8444 32.2855 23.82 32.328C23.076 33.6 22.104 34.56 20.904 35.208C19.728 35.832 18.42 36.144 16.98 36.144C15.636 36.144 14.4 35.892 13.272 35.388C12.168 34.86 11.208 34.14 10.392 33.228C9.59999 32.316 8.97599 31.272 8.51999 30.096C8.08799 28.896 7.87199 27.636 7.87199 26.316V25.668C7.87199 24.324 8.09999 23.076 8.55599 21.924C9.01199 20.748 9.64799 19.728 10.464 18.864C11.28 18 12.252 17.328 13.38 16.848C14.532 16.368 15.792 16.128 17.16 16.128C18.768 16.128 20.184 16.476 21.408 17.172C22.632 17.844 23.592 18.84 24.288 20.16C24.3504 20.2724 24.4104 20.387 24.468 20.5039V16.776H27.204V33.732C27.204 36.036 26.844 37.896 26.124 39.312C25.428 40.752 24.3 41.808 22.74 42.48C21.204 43.152 19.152 43.488 16.584 43.488ZM17.628 32.976C18.78 32.976 19.824 32.724 20.76 32.22C21.72 31.716 22.476 30.996 23.028 30.06C23.604 29.1 23.892 27.96 23.892 26.64V24.984C23.892 23.688 23.592 22.596 22.992 21.708C22.416 20.82 21.66 20.148 20.724 19.692C19.788 19.236 18.768 19.008 17.664 19.008C16.416 19.008 15.312 19.296 14.352 19.872C13.392 20.448 12.648 21.264 12.12 22.32C11.592 23.352 11.328 24.576 11.328 25.992C11.328 27.408 11.592 28.644 12.12 29.7C12.672 30.756 13.416 31.572 14.352 32.148C15.312 32.7 16.404 32.976 17.628 32.976ZM33.605 36V16.776H36.341V21.2345C36.434 20.8825 36.542 20.5483 36.665 20.232C37.193 18.912 37.985 17.916 39.041 17.244C40.097 16.548 41.429 16.2 43.037 16.2H43.181C45.605 16.2 47.393 16.956 48.545 18.468C49.721 19.98 50.309 22.164 50.309 25.02V36H46.853V24.3C46.853 22.812 46.433 21.624 45.593 20.736C44.753 19.824 43.601 19.368 42.137 19.368C40.625 19.368 39.401 19.836 38.465 20.772C37.529 21.708 37.061 22.956 37.061 24.516V36H33.605ZM71.9604 36V16.776H74.6964V21.1882C74.7802 20.8668 74.8762 20.5601 74.9844 20.268C75.4884 18.948 76.2324 17.94 77.2164 17.244C78.2004 16.548 79.4484 16.2 80.9604 16.2H81.1044C82.6164 16.2 83.8644 16.548 84.8484 17.244C85.8564 17.94 86.6004 18.948 87.0804 20.268C87.1638 20.493 87.2399 20.7266 87.3087 20.969C87.381 20.7266 87.4609 20.493 87.5484 20.268C88.0524 18.948 88.7964 17.94 89.7804 17.244C90.7884 16.548 92.0484 16.2 93.5604 16.2H93.7044C95.2164 16.2 96.4764 16.548 97.4844 17.244C98.4924 17.94 99.2364 18.948 99.7164 20.268C100.22 21.564 100.472 23.148 100.472 25.02V36H97.0164V24.264C97.0164 22.704 96.6324 21.504 95.8644 20.664C95.0964 19.8 94.0284 19.368 92.6604 19.368C91.2444 19.368 90.1044 19.824 89.2404 20.736C88.3764 21.624 87.9444 22.872 87.9444 24.48V36H84.4884V24.264C84.4884 22.704 84.1044 21.504 83.3364 20.664C82.5684 19.8 81.5004 19.368 80.1324 19.368C78.7164 19.368 77.5764 19.824 76.7124 20.736C75.8484 21.624 75.4164 22.872 75.4164 24.48V36H71.9604ZM136.488 36.576C134.208 36.576 132.456 35.832 131.232 34.344C130.008 32.856 129.396 30.708 129.396 27.9V16.74H132.852V28.584C132.852 30.096 133.26 31.284 134.076 32.148C134.892 32.988 135.996 33.408 137.388 33.408C138.828 33.408 140.004 32.952 140.916 32.04C141.828 31.104 142.284 29.832 142.284 28.224V16.74H145.74V36H143.004V31.562C142.911 31.9185 142.803 32.2578 142.68 32.58C142.176 33.876 141.42 34.872 140.412 35.568C139.428 36.24 138.168 36.576 136.632 36.576H136.488ZM158.337 35.604C159.585 36.3 161.001 36.648 162.585 36.648C164.001 36.648 165.285 36.384 166.437 35.856C167.613 35.328 168.621 34.608 169.461 33.696C170.301 32.76 170.937 31.692 171.369 30.492C171.825 29.292 172.053 28.008 172.053 26.64V25.992C172.053 24.624 171.837 23.352 171.405 22.176C170.973 20.976 170.349 19.932 169.533 19.044C168.717 18.132 167.745 17.424 166.617 16.92C165.489 16.392 164.241 16.128 162.873 16.128C161.409 16.128 160.065 16.452 158.841 17.1C157.641 17.724 156.669 18.696 155.925 20.016C155.913 20.0374 155.901 20.0589 155.889 20.0806V9.71997H152.433V36H155.169V32.0698C155.248 32.2439 155.332 32.4139 155.421 32.58C156.141 33.9 157.113 34.908 158.337 35.604ZM165.573 32.688C164.613 33.312 163.485 33.624 162.189 33.624C161.061 33.624 160.005 33.372 159.021 32.868C158.037 32.364 157.245 31.644 156.645 30.708C156.045 29.772 155.745 28.644 155.745 27.324V25.668C155.745 24.3 156.033 23.136 156.609 22.176C157.209 21.192 158.001 20.448 158.985 19.944C159.969 19.416 161.037 19.152 162.189 19.152C163.461 19.152 164.577 19.452 165.537 20.052C166.497 20.628 167.241 21.456 167.769 22.536C168.321 23.616 168.597 24.876 168.597 26.316C168.597 27.756 168.333 29.028 167.805 30.132C167.277 31.212 166.533 32.064 165.573 32.688Z" fill="white"/>
</svg>
