<svg width="455" height="131" viewBox="0 0 455 131" fill="none" xmlns="http://www.w3.org/2000/svg">
<path d="M16.5882 11.9372C15.7479 21.2453 13.8865 30.4037 13.2642 39.7378" stroke="black" stroke-width="3" stroke-linecap="round"/>
<path d="M15.6816 11.3329C19.6898 10.4593 23.6783 9.36548 26.7112 12.7263C29.542 15.8632 32.7218 22.1381 31.3446 26.4419C30.6552 28.5962 28.958 30.3199 27.5002 31.9818C26.2602 33.3954 24.6154 35.7773 22.8668 36.5817C21.9416 37.0072 20.5957 37.0181 19.5932 37.0181C17.3577 37.0181 16.287 34.6776 15.0773 33.0898" stroke="black" stroke-width="3" stroke-linecap="round"/>
<path d="M26.8623 32.4855C29.4481 32.4855 33.0917 33.1485 35.5583 32.1833C36.2469 31.9138 37.7072 30.4479 37.7072 29.6315C37.7072 28.2144 34.3926 30.731 34.1146 31.1089C32.4972 33.3068 33.0537 34.2367 35.0211 36.0948C39.0315 39.8824 45.5974 39.11 45.5974 32.7205C45.5974 27.2944 37.0012 29.1854 35.0211 32.4855" stroke="black" stroke-width="3" stroke-linecap="round"/>
<path d="M48.9214 30.068C47.6418 32.2334 46.9693 34.033 47.1083 36.5817C47.2383 38.9661 51.3762 39.0319 52.9672 38.7137C56.7019 37.9668 60.6636 34.7058 62.4523 31.3271C63.6206 29.1202 60.161 30.6371 59.5648 31.6461C58.1059 34.115 67.0214 34.0704 67.7908 36.5985C68.3314 38.3746 67.7459 40.2814 66.3135 41.4669C64.7968 42.7221 62.1485 42.1437 60.4042 41.853" stroke="black" stroke-width="3" stroke-linecap="round"/>
<path d="M94.2483 9.21762C94.2483 17.2012 94.8495 25.141 95.5913 33.0898C95.7185 34.4518 95.7592 35.7868 95.7592 37.1524C95.7592 38.9558 95.9607 37.6224 96.0614 36.716" stroke="black" stroke-width="3" stroke-linecap="round"/>
<path d="M78.2328 9.5198C88.4452 8.95593 98.007 7.89544 107.544 4.08057" stroke="black" stroke-width="3" stroke-linecap="round"/>
<path d="M96.3636 37.9247C101.244 37.9247 106.464 37.784 109.827 33.7613C110.715 32.6991 110.596 31.4402 110.566 30.1352C110.526 28.3689 108.089 28.5176 106.822 28.5739C102.28 28.7758 101.949 32.9969 104.153 36.1452C108.494 42.3468 116.898 38.1806 120.823 33.8285C122.188 32.3158 123.795 30.555 124.131 28.4564C124.351 27.0809 122.29 27.6987 121.713 28.2214C119.124 30.5675 115.348 39.8756 120.605 41.4837C124.094 42.5508 127.773 40.8562 130.778 39.2005C132.399 38.308 134.136 36.8724 134.136 34.8861C134.136 32.8638 132.44 31.8223 130.778 30.9913C129.289 30.2467 127.729 29.7471 126.078 29.514C123.683 29.1759 122.525 29.6203 120.538 30.6724" stroke="black" stroke-width="3" stroke-linecap="round"/>
<path d="M136.856 30.068C134.36 32.2808 133.459 34.265 133.532 37.5889C133.576 39.6204 134.457 41.2928 136.587 41.6851C142.239 42.7263 142.899 35.2144 142.899 31.3775C142.899 28.7516 141.048 41.7042 141.724 39.167C142.425 36.5401 143.221 33.9232 143.974 31.3103C144.412 29.7876 145.466 26.6132 147.667 27.1134C149.06 27.43 149.258 29.233 149.245 30.3702C149.227 31.9921 147.834 36.6999 148.271 35.1379C149.168 31.9367 150.346 28.5524 151.662 25.5017C152.338 23.9348 153.545 23.1048 154.819 24.528C158.779 28.954 155.458 35.0083 155.305 40.2078C155.287 40.8235 154.769 43.6444 156.128 43.1289C157.509 42.605 158.718 41.4673 159.888 40.6107C162.258 38.877 164.685 37.2135 167.074 35.5072" stroke="black" stroke-width="3" stroke-linecap="round"/>
<path d="M184.743 24.9068C185.317 28.2058 185.833 31.5116 186.405 34.8155C186.617 36.041 186.815 38.184 187.41 39.3083C187.625 39.7155 190.985 35.0639 191.472 34.1385C192.842 31.5353 194.218 28.8518 195.452 26.3839" stroke="black" stroke-width="3" stroke-linecap="round"/>
<path d="M189.543 38.2005C196.085 38.2005 204.228 38.9366 205.627 30.7741C205.795 29.7939 206.52 26.7531 205.032 26.7531C202.324 26.7531 200.364 28.6368 199.391 31.1023C198.311 33.8377 198.704 37.2008 200.293 39.657C201.892 42.1284 205.381 42.2927 208.048 42.2624C211.04 42.2284 211.934 39.1043 212.048 36.5388C212.207 32.9689 211.268 31.5328 208.007 30.4458" stroke="black" stroke-width="3" stroke-linecap="round"/>
<path d="M210.222 39.6775C213.561 38.8236 217.612 35.5863 219.905 33.0717C221.127 31.7324 222.386 30.0706 223.065 28.3738C223.338 27.6911 223.113 29.9987 223.085 30.1997C222.581 33.8956 219.346 44.6442 220.275 41.0315C221.279 37.1245 222.709 31.4811 225.998 28.8662C228.389 26.9658 232.714 27.232 235.23 28.8046C238.081 30.5863 234.451 37.2555 234.02 39.4314C233.802 40.5302 233.133 43.9603 234.861 44.0882C236.799 44.2318 238.506 43.3496 240.174 42.4676C244.553 40.152 248.617 37.3156 252.688 34.5078" stroke="black" stroke-width="3" stroke-linecap="round"/>
<path d="M157.323 85.0158C154.055 85.0158 152.781 84.9593 151.259 88.0384C149.765 91.0577 149.595 95.9101 150.779 99.0736C153.45 106.209 165.441 105.697 170.128 101.611C175.021 97.3473 182.516 82.0522 171.708 80.1968C167.882 79.54 164.114 80.5369 160.708 82.3354C155.556 85.0549 168.322 89.7502 170.072 90.5477C176.44 93.449 179.388 98.4494 176.813 105.575C175.761 108.485 174.449 112.288 171.933 114.272C169.344 116.314 165.243 115.812 162.174 115.812C161.41 115.812 157.358 116.387 156.872 115.527C155.795 113.622 159.291 112.518 160.313 112.248C165.668 110.827 171.265 111.496 176.559 109.653C180.908 108.139 184.597 105.142 186.883 101.098C188.366 98.4745 189.882 95.6315 190.521 92.6578C191.234 89.3438 188.432 99.1066 187.56 102.381C186.965 104.615 186.128 111.506 186.262 109.196C186.531 104.576 189.128 100.213 190.606 95.9085C192.737 89.6995 198.253 79.5637 204.229 88.0669C208.879 94.6826 202.409 102.743 202.509 109.938C202.533 111.704 202.877 112.736 204.765 111.734C210.086 108.91 214.739 103.53 218.896 99.2162C224.42 93.4856 228.948 87.1521 233.422 80.5675C235.935 76.8697 237.991 73.048 239.628 68.8763C240.401 66.905 240.349 66.8262 240.982 65.0553C241.11 64.6956 241.165 63.832 241.489 64.0288C242.591 64.6969 241.576 74.5304 241.518 75.5488C241.06 83.494 238.93 91.2986 238.33 99.2732C238.006 103.586 238.048 107.898 238.048 112.219" stroke="black" stroke-width="6" stroke-linecap="round"/>
<path d="M234 106.386C238.564 105.246 241.885 103.068 245.748 100.528C248.654 98.6163 251.456 97.1391 252.143 93.4299C252.656 90.6605 252.507 90.9171 251.946 93.5989C251.164 97.3326 249.833 101.027 249.72 104.865C249.698 105.619 248.721 109.331 248.791 108.386C249.275 101.854 252.773 94.4399 255.806 88.7544C257.16 86.215 259.652 83.2138 262.933 84.4168C266.876 85.862 267.016 90.4979 266.962 94.0496C266.881 99.39 264.449 104.908 262.483 109.823C262.031 110.952 262.703 107.384 263.046 106.217C264.193 102.319 266.259 98.7188 268.483 95.3452C271.094 91.3857 276.27 82.6963 280.654 89.1487C282.212 91.4425 283.423 92.8966 283.133 95.7959C282.742 99.7084 280.457 103.088 279.753 106.893C279.336 109.144 279.247 110.949 281.781 110.949C284.025 110.949 286.762 111.373 288.937 110.78C294.001 109.399 297.803 104.507 301.051 100.697C305.899 95.0094 311.148 89.329 315.278 83.093C319.049 77.3991 322.116 71.1825 325.73 65.3765C327.135 63.1206 327.595 55.057 326.407 57.4336C324.359 61.5275 323.995 67.9075 323.279 72.3053C321.71 81.9533 320.026 91.5297 318.293 101.147C317.575 105.132 316.369 108.993 315.645 112.977C315.473 113.922 315.029 118.055 315.137 114.724C315.339 108.543 318.234 101.794 321.223 96.4719C323.073 93.1777 324.803 87.78 328.322 85.8251C336.353 81.3647 339.272 100.927 337.647 106.161C336.498 109.865 333.005 116.332 340.268 113.428C345.191 111.459 348.437 105.302 350.804 100.866C351.212 100.101 358.885 85.5127 358.101 85.1209C357.393 84.767 347.436 107.487 348.635 111.682C349.518 114.772 360.876 110.303 362.27 109.71C366.39 107.959 369.067 106.349 371.708 102.668C373.77 99.7953 374.598 96.4767 375.934 93.2328C376.282 92.3892 376.313 91.3179 376.751 90.5288C376.947 90.1766 376.394 92.9026 376.272 93.2046C374.272 98.1482 371.405 102.506 370.215 107.795C369.271 111.989 368.943 117.015 374.554 114.949C384.435 111.309 391.822 106.83 398.303 98.528C401.76 94.1002 402.843 89.0034 404.614 83.7971C405.97 79.8101 407.431 75.6414 407.431 71.3759C407.431 69.3461 407.598 66.1435 404.304 67.4608C396.142 70.7247 396.535 85.296 395.317 91.9935C394.378 97.158 394.246 102.608 394.246 107.851C394.246 109.601 393.567 112.749 395.007 114.188C395.943 115.124 399.54 114.467 400.501 114.273C404.199 113.526 409.27 110.397 411.995 107.823C413.968 105.96 419.68 97.1843 412.953 97.7957C408.696 98.1826 401.064 106.572 408.474 107.879C411.931 108.489 415.576 109.412 419.095 108.696C423.618 107.776 427.865 104.896 432.082 103.119C437.32 100.912 442.561 99.3212 448 97.7675" stroke="black" stroke-width="6" stroke-linecap="round"/>
</svg>
